<svg width="22" height="16" viewBox="0 0 22 16" fill="none" xmlns="http://www.w3.org/2000/svg">
<path d="M3.78912 6.92882C4.21301 6.92882 4.62738 6.80313 4.97984 6.56762C5.33229 6.33212 5.60699 5.9974 5.76921 5.60577C5.93143 5.21415 5.97387 4.78321 5.89117 4.36747C5.80848 3.95172 5.60435 3.56983 5.30462 3.27009C5.00488 2.97036 4.62299 2.76623 4.20724 2.68354C3.7915 2.60084 3.36056 2.64328 2.96894 2.8055C2.57731 2.96771 2.24259 3.24242 2.00708 3.59487C1.77158 3.94732 1.64588 4.3617 1.64588 4.78559C1.64635 5.35387 1.87231 5.89874 2.27414 6.30057C2.67597 6.7024 3.22084 6.92836 3.78912 6.92882ZM18.7891 6.92882C19.213 6.92882 19.6274 6.80313 19.9798 6.56762C20.3323 6.33212 20.607 5.9974 20.7692 5.60577C20.9314 5.21415 20.9739 4.78321 20.8912 4.36747C20.8085 3.95172 20.6044 3.56983 20.3046 3.27009C20.0049 2.97036 19.623 2.76623 19.2072 2.68354C18.7915 2.60084 18.3606 2.64328 17.9689 2.8055C17.5773 2.96771 17.2426 3.24242 17.0071 3.59487C16.7716 3.94732 16.6459 4.3617 16.6459 4.78559C16.6463 5.35387 16.8723 5.89874 17.2741 6.30057C17.676 6.7024 18.2208 6.92836 18.7891 6.92882ZM19.8603 8H17.7179C17.1521 7.99949 16.6091 8.22353 16.2082 8.62294C16.8864 8.99203 17.4677 9.51621 17.9048 10.1527C18.3418 10.7893 18.6221 11.5201 18.7229 12.2856H20.9288C21.0695 12.2857 21.2089 12.2581 21.3389 12.2043C21.4689 12.1505 21.587 12.0716 21.6865 11.9721C21.786 11.8726 21.8649 11.7545 21.9187 11.6245C21.9725 11.4945 22.0001 11.3551 22 11.2144V10.1432C21.9995 9.57557 21.7741 9.03123 21.373 8.6295C20.9719 8.22777 20.428 8.0014 19.8603 8ZM11.2891 8C12.0308 8 12.7558 7.78007 13.3725 7.36801C13.9892 6.95596 14.4698 6.37029 14.7537 5.68506C15.0375 4.99984 15.1118 4.24584 14.9671 3.51841C14.8224 2.79098 14.4652 2.1228 13.9408 1.59835C13.4163 1.0739 12.7481 0.716751 12.0207 0.572057C11.2933 0.427362 10.5393 0.501625 9.85406 0.785453C9.16883 1.06928 8.58316 1.54993 8.17111 2.16661C7.75905 2.7833 7.53912 3.50832 7.53912 4.25C7.53889 4.74252 7.63572 5.23026 7.8241 5.68534C8.01247 6.14041 8.28868 6.5539 8.63695 6.90217C8.98522 7.25043 9.3987 7.52665 9.85378 7.71502C10.3089 7.90339 10.7966 8.00023 11.2891 8ZM13.8603 9.07118H13.5824C12.869 9.42375 12.084 9.60716 11.2882 9.60716C10.4925 9.60716 9.70748 9.42375 8.99412 9.07118H8.71794C7.69521 9.07164 6.7145 9.47813 5.99131 10.2013C5.26813 10.9245 4.86164 11.9052 4.86118 12.9279V13.8924C4.86118 14.3186 5.03043 14.7274 5.33173 15.0288C5.63304 15.3303 6.04172 15.4998 6.46794 15.5H16.1103C16.5364 15.4998 16.9449 15.3304 17.2462 15.0291C17.5475 14.7279 17.7168 14.3193 17.7171 13.8932V12.9288C17.7168 11.9059 17.3104 10.925 16.5872 10.2016C15.864 9.47825 14.8832 9.07164 13.8603 9.07118ZM6.37 8.62294C5.96914 8.22353 5.42618 7.99949 4.86029 8H2.71794C2.14966 8.00047 1.6048 8.22642 1.20296 8.62826C0.801129 9.03009 0.575175 9.57496 0.574707 10.1432V11.2144C0.574591 11.3551 0.602219 11.4945 0.656009 11.6245C0.7098 11.7545 0.788698 11.8726 0.888189 11.9721C0.98768 12.0716 1.10581 12.1505 1.23583 12.2043C1.36584 12.2581 1.50518 12.2857 1.64588 12.2856H3.85177C3.954 11.52 4.2354 10.7893 4.67311 10.1529C5.11083 9.51646 5.69251 8.99229 6.37088 8.62294H6.37Z" fill="#0072BB"/>
</svg>
