<svg width="20" height="20" viewBox="0 0 20 20" fill="none" xmlns="http://www.w3.org/2000/svg">
<mask id="mask0_1447_4082" style="mask-type:alpha" maskUnits="userSpaceOnUse" x="0" y="0" width="20" height="20">
<rect width="20" height="20" fill="#D9D9D9"/>
</mask>
<g mask="url(#mask0_1447_4082)">
<path d="M11.1571 5.53027C11.148 4.88309 10.9467 4.3081 10.5536 3.8252L10.3729 3.62402C9.85667 3.09804 9.20849 2.83398 8.46179 2.83398C7.80951 2.83401 7.23168 3.03794 6.7489 3.44141L6.54773 3.62695C6.02888 4.15208 5.76648 4.80183 5.76648 5.5459V13.0332C5.75734 14.102 6.10856 15.0353 6.81238 15.8086L6.95789 15.9609C7.75763 16.7619 8.74076 17.1669 9.87878 17.167C10.9345 17.167 11.8551 16.8098 12.6161 16.1045L12.7665 15.959C13.5529 15.1597 13.9582 14.1792 13.9774 13.0459L13.4784 13.0371L13.9784 13.0459V5.82129H14.2284V13.0371C14.2284 14.1837 13.8586 15.1561 13.1141 15.9775L12.9598 16.1406C12.1132 16.9946 11.0948 17.417 9.87585 17.417C8.7331 17.4169 7.76562 17.0455 6.9491 16.2949L6.78796 16.1396C5.93775 15.2846 5.51648 14.2599 5.51648 13.0371V5.5459L5.53015 5.24023C5.58332 4.64267 5.79606 4.12279 6.17175 3.66797L6.37292 3.44531C6.94515 2.86849 7.63153 2.58401 8.46179 2.58398C9.1884 2.58398 9.80473 2.80209 10.3309 3.24316L10.5507 3.44531C11.1241 4.02324 11.4071 4.7142 11.4071 5.5459V12.6367C11.4071 13.0164 11.2962 13.3362 11.0673 13.6143L10.9618 13.7305C10.6636 14.0332 10.3137 14.1796 9.88171 14.1797C9.50246 14.1797 9.18326 14.0677 8.90515 13.8369L8.78796 13.7305C8.48495 13.4295 8.33679 13.0749 8.33679 12.6367V5.82129H8.58679V12.6367C8.58679 12.9849 8.70964 13.3011 8.95593 13.5518C9.20433 13.8043 9.52119 13.9306 9.87195 13.9307C10.2229 13.9307 10.5405 13.8045 10.7889 13.5518C11.0352 13.3011 11.1571 12.9849 11.1571 12.6367V5.53027Z" stroke="#0D658B"/>
</g>
</svg>
