<svg width="40" height="40" viewBox="0 0 40 40" fill="none" xmlns="http://www.w3.org/2000/svg">
<path d="M36.5625 37.5H35V1.875C35 0.839453 34.1605 0 33.125 0H6.875C5.83945 0 5 0.839453 5 1.875V37.5H3.4375C2.91977 37.5 2.5 37.9198 2.5 38.4375V40H37.5V38.4375C37.5 37.9198 37.0802 37.5 36.5625 37.5ZM12.5 5.9375C12.5 5.41977 12.9198 5 13.4375 5H16.5625C17.0802 5 17.5 5.41977 17.5 5.9375V9.0625C17.5 9.58023 17.0802 10 16.5625 10H13.4375C12.9198 10 12.5 9.58023 12.5 9.0625V5.9375ZM12.5 13.4375C12.5 12.9198 12.9198 12.5 13.4375 12.5H16.5625C17.0802 12.5 17.5 12.9198 17.5 13.4375V16.5625C17.5 17.0802 17.0802 17.5 16.5625 17.5H13.4375C12.9198 17.5 12.5 17.0802 12.5 16.5625V13.4375ZM16.5625 25H13.4375C12.9198 25 12.5 24.5802 12.5 24.0625V20.9375C12.5 20.4198 12.9198 20 13.4375 20H16.5625C17.0802 20 17.5 20.4198 17.5 20.9375V24.0625C17.5 24.5802 17.0802 25 16.5625 25ZM22.5 37.5H17.5V30.9375C17.5 30.4198 17.9198 30 18.4375 30H21.5625C22.0802 30 22.5 30.4198 22.5 30.9375V37.5ZM27.5 24.0625C27.5 24.5802 27.0802 25 26.5625 25H23.4375C22.9198 25 22.5 24.5802 22.5 24.0625V20.9375C22.5 20.4198 22.9198 20 23.4375 20H26.5625C27.0802 20 27.5 20.4198 27.5 20.9375V24.0625ZM27.5 16.5625C27.5 17.0802 27.0802 17.5 26.5625 17.5H23.4375C22.9198 17.5 22.5 17.0802 22.5 16.5625V13.4375C22.5 12.9198 22.9198 12.5 23.4375 12.5H26.5625C27.0802 12.5 27.5 12.9198 27.5 13.4375V16.5625ZM27.5 9.0625C27.5 9.58023 27.0802 10 26.5625 10H23.4375C22.9198 10 22.5 9.58023 22.5 9.0625V5.9375C22.5 5.41977 22.9198 5 23.4375 5H26.5625C27.0802 5 27.5 5.41977 27.5 5.9375V9.0625Z" fill="#666666"/>
</svg>
