<svg width="20" height="20" viewBox="0 0 20 20" fill="none" xmlns="http://www.w3.org/2000/svg">
<mask id="mask0_1447_5264" style="mask-type:alpha" maskUnits="userSpaceOnUse" x="0" y="0" width="20" height="20">
<rect width="20" height="20" fill="#D9D9D9"/>
</mask>
<g mask="url(#mask0_1447_5264)">
<path d="M14.7281 13.0375C14.7281 14.3909 14.2572 15.5425 13.3154 16.4923C12.3737 17.4423 11.2274 17.9173 9.87639 17.9173C8.52542 17.9173 7.37771 17.4423 6.43327 16.4923C5.48882 15.5425 5.0166 14.3909 5.0166 13.0375V5.54544C5.0166 4.58392 5.35049 3.76662 6.01827 3.09357C6.68591 2.42051 7.50049 2.08398 8.46202 2.08398C9.42355 2.08398 10.2382 2.42051 10.906 3.09357C11.5738 3.76662 11.9076 4.58392 11.9076 5.54544V12.6369C11.9076 13.2009 11.7112 13.6825 11.3183 14.0815C10.9252 14.4805 10.4463 14.68 9.8816 14.68C9.31674 14.68 8.8348 14.4819 8.43577 14.0857C8.03674 13.6894 7.83723 13.2065 7.83723 12.6369V5.32128H9.08702V12.6369C9.08702 12.8602 9.16209 13.0483 9.31223 13.2011C9.46237 13.3538 9.6491 13.4302 9.87244 13.4302C10.0956 13.4302 10.2823 13.3538 10.4324 13.2011C10.5826 13.0483 10.6576 12.8602 10.6576 12.6369V5.53753C10.649 4.92211 10.4353 4.401 10.0164 3.97419C9.5975 3.54739 9.07938 3.33398 8.46202 3.33398C7.8473 3.33398 7.32771 3.54871 6.90327 3.97815C6.47882 4.40773 6.2666 4.93017 6.2666 5.54544V13.0375C6.25799 14.045 6.60625 14.9018 7.31139 15.6079C8.01653 16.3142 8.8725 16.6673 9.87931 16.6673C10.8718 16.6673 11.7155 16.3142 12.4104 15.6079C13.1051 14.9018 13.461 14.045 13.4781 13.0375V5.32128H14.7281V13.0375Z" fill="white"/>
</g>
</svg>
