<svg width="133" height="32" viewBox="0 0 133 32" fill="none" xmlns="http://www.w3.org/2000/svg">
<path d="M13.7366 0.530273L0 31.4688H7.32878L10.0839 24.8425H24.4059L27.161 31.4688H34.6693L20.8078 0.530273H13.7444H13.7366ZM12.3473 19.4025L17.2488 7.6093L22.1502 19.4025H12.3473Z" fill="#0075A8"/>
<path d="M58.2165 21.502C60.2224 20.6356 61.7677 19.3634 62.8526 17.701C63.9453 16.0386 64.4838 14.0405 64.4838 11.7147C64.4838 9.3888 63.9375 7.42978 62.8526 5.74392C61.7599 4.06588 60.2146 2.77807 58.2165 1.8727C56.2107 0.975144 53.8302 0.522461 51.0594 0.522461H37.6741V31.461H44.8702V22.7976H51.0516C51.1609 22.7976 51.2546 22.7898 51.356 22.782L57.3658 31.461H65.0536L58.1619 21.5098C58.1619 21.5098 58.1931 21.502 58.2087 21.4942L58.2165 21.502ZM55.6097 7.75758C56.7258 8.68636 57.2877 10.0054 57.2877 11.7147C57.2877 13.4239 56.7258 14.7508 55.6097 15.6951C54.4936 16.6395 52.839 17.1078 50.6614 17.1078H44.878V6.36831H50.6614C52.839 6.36831 54.4858 6.8288 55.6097 7.75758Z" fill="#0075A8"/>
<path d="M78.0488 8.84293C78.9307 7.96098 79.9766 7.27415 81.1863 6.79025C82.3961 6.30635 83.7151 6.0644 85.159 6.0644C86.6888 6.0644 88.1093 6.37659 89.4205 6.99318C90.7317 7.60976 91.9025 8.52293 92.9327 9.73269L97.5688 5.48684C96.0937 3.69171 94.2673 2.32586 92.0898 1.39708C89.9122 0.4683 87.4849 0.0078125 84.8 0.0078125C82.4117 0.0078125 80.1951 0.398056 78.1503 1.17854C76.1054 1.95903 74.3259 3.07513 72.8039 4.51903C71.2898 5.96293 70.1112 7.65659 69.2683 9.60001C68.4254 11.5434 68.0117 13.682 68.0117 16.0078C68.0117 18.3337 68.4332 20.4722 69.2683 22.4156C70.1034 24.359 71.2742 26.0527 72.7805 27.4966C74.279 28.9405 76.0585 30.0566 78.1034 30.8371C80.1483 31.6176 82.3649 32.0078 84.7532 32.0078C87.4615 32.0078 89.9044 31.5395 92.082 30.5951C94.2595 29.6507 96.0859 28.2849 97.561 26.482L92.9249 22.2361C91.8946 23.4459 90.7239 24.3668 89.4127 24.999C88.1015 25.6312 86.681 25.9512 85.1512 25.9512C83.7073 25.9512 82.3805 25.7093 81.1785 25.2254C79.9688 24.7415 78.9229 24.0546 78.041 23.1727C77.159 22.2907 76.4722 21.2449 75.9883 20.0351C75.5044 18.8254 75.2625 17.4907 75.2625 16.0156C75.2625 14.5405 75.5044 13.1981 75.9883 11.9961C76.4722 10.7863 77.159 9.74049 78.041 8.85854L78.0488 8.84293Z" fill="#0075A8"/>
<path d="M125.175 31.4688H132.683L118.814 0.530273H111.75L98.0137 31.4688H105.342L108.098 24.8425H122.42L125.175 31.4688ZM110.353 19.4025L115.255 7.6093L120.156 19.4025H110.353Z" fill="#0075A8"/>
</svg>
