<svg width="22" height="14" viewBox="0 0 22 14" fill="none" xmlns="http://www.w3.org/2000/svg">
<path d="M21.7452 7.61922L15.6204 13.744C15.4978 13.8663 15.3417 13.9496 15.1719 13.9833C15.002 14.017 14.8259 13.9995 14.6659 13.9332C14.5059 13.8669 14.3692 13.7546 14.2729 13.6106C14.1767 13.4666 14.1253 13.2973 14.1252 13.1241V9.62633H9.16729C9.05224 9.62669 8.93825 9.60429 8.83189 9.56042C8.72553 9.51656 8.62889 9.45209 8.54753 9.37074C8.46618 9.28938 8.40171 9.19274 8.35785 9.08638C8.31398 8.98002 8.29158 8.86603 8.29194 8.75098V5.25136C8.29158 5.13631 8.31398 5.02232 8.35785 4.91596C8.40171 4.80959 8.46618 4.71295 8.54753 4.6316C8.62889 4.55024 8.72553 4.48578 8.83189 4.44191C8.93825 4.39805 9.05224 4.37565 9.16729 4.37601H14.1261V0.874593C14.1266 0.70159 14.1783 0.532599 14.2746 0.388878C14.3709 0.245156 14.5076 0.133122 14.6674 0.0668691C14.8272 0.000615927 15.003 -0.0168979 15.1728 0.0165305C15.3425 0.0499588 15.4986 0.132837 15.6213 0.254739L21.7461 6.37951C21.909 6.54479 22.0002 6.76754 22 6.99955C21.9998 7.23157 21.9083 7.45419 21.7452 7.61922ZM10.6256 13.5623V12.1039C10.6251 11.9881 10.5789 11.8772 10.497 11.7953C10.4151 11.7134 10.3042 11.6672 10.1884 11.6667H7.1251C6.81492 11.6667 6.51745 11.5435 6.29812 11.3242C6.07878 11.1048 5.95557 10.8074 5.95557 10.4972V3.49975C5.95557 3.18957 6.07878 2.8921 6.29812 2.67277C6.51745 2.45344 6.81492 2.33022 7.1251 2.33022H10.1839C10.2997 2.32974 10.4106 2.28353 10.4925 2.20163C10.5744 2.11974 10.6206 2.0088 10.6211 1.89299V0.437366C10.6207 0.322324 10.5751 0.212059 10.4941 0.130291C10.4132 0.048524 10.3034 0.0017887 10.1884 0.000139413H7.1251C6.19702 0.000377903 5.30702 0.369163 4.65077 1.02542C3.99451 1.68167 3.62573 2.57167 3.62549 3.49975L3.62549 10.4999C3.62573 11.428 3.99451 12.318 4.65077 12.9742C5.30702 13.6305 6.19702 13.9993 7.1251 13.9995H10.1839C10.2416 13.9999 10.2989 13.9888 10.3523 13.967C10.4058 13.9452 10.4544 13.9131 10.4954 13.8725C10.5365 13.8319 10.5691 13.7836 10.5914 13.7304C10.6138 13.6771 10.6254 13.62 10.6256 13.5623Z" fill="#0072BB"/>
</svg>
